# xmcd CD database file
#
# Track frame offsets:
#	150
#	13628
#	26898
#	40642
#	54172
#	67732
#	81634
#	94353
#	107818
#	119860
#	130522
#	142703
#	154527
#	163698
#	177838
#	194455
#	205405
#	214413
#	232456
#	245911
#	259106
#	270663
#	282940
#
# Disc length: 3954 seconds
#
# Revision: 0
# Processed by: cddbd v1.5.2PL0 Copyright (c) Steve Scherf et al.
# Submitted via: CDex 1.51
#
DISCID=590f7017
DTITLE=Sarah Vaughan - The Complete Columbia Singles (3/3)
DYEAR=2019
DGENRE=Jazz
TTITLE0=Corner to Corner
TTITLE1=If Someone Had Told Me
TTITLE2=Street of Dreams
TTITLE3=Time to Go
TTITLE4=My Tormented Heart
TTITLE5=Say You'll Wait For Me
TTITLE6=Mighty Lonesome Feelin'
TTITLE7=Sinner Or Saint
TTITLE8=A Lover's Quarrel
TTITLE9=I Confess
TTITLE10=Spring Will Be a Little Late This Year
TTITLE11=A Blues Serenade
TTITLE12=Linger Awhile
TTITLE13=Time
TTITLE14=Once In a While (live)
TTITLE15=Mean to Me (live)
TTITLE16=My Gentleman Friend (live)
TTITLE17=You're All I Need (live)
TTITLE18=Embraceable You (live)
TTITLE19=Ev'ry Day (I Fall In Love)
TTITLE20=I Love You
TTITLE21=Didicated To You
TTITLE22=You're All I Need
EXTD=YEAR: 2019
EXTT0=
EXTT1=
EXTT2=
EXTT3=
EXTT4=
EXTT5=
EXTT6=
EXTT7=
EXTT8=
EXTT9=
EXTT10=
EXTT11=
EXTT12=
EXTT13=
EXTT14=
EXTT15=
EXTT16=
EXTT17=
EXTT18=
EXTT19=
EXTT20=
EXTT21=
EXTT22=
PLAYORDER=
